<?xml version="1.0"?>
<svg xmlns="http://www.w3.org/2000/svg" xmlns:xlink="http://www.w3.org/1999/xlink" version="1.1" id="Capa_1" x="0px" y="0px" viewBox="0 0 463 463" style="enable-background:new 0 0 463 463;" xml:space="preserve" width="512px" height="512px"><g><g>
	<path d="M287.5,104h-24H255V15h16.5c4.143,0,7.5-3.358,7.5-7.5S275.643,0,271.5,0h-80c-4.143,0-7.5,3.358-7.5,7.5   s3.357,7.5,7.5,7.5h16.348l0.304,89H199.5h-24c-4.143,0-7.5,3.358-7.5,7.5s3.357,7.5,7.5,7.5H192v225.233   c0,6.24,1.83,12.283,5.291,17.473L224,401.771V455.5c0,4.142,3.357,7.5,7.5,7.5s7.5-3.358,7.5-7.5v-53.729l26.709-40.064   c3.461-5.191,5.291-11.233,5.291-17.473V119h16.5c4.143,0,7.5-3.358,7.5-7.5S291.643,104,287.5,104z M222.848,15H240v89h-16.848   L222.848,15z M253.229,353.385C253.229,353.386,253.229,353.386,253.229,353.385L231.5,385.979l-21.729-32.594   c-1.813-2.719-2.771-5.883-2.771-9.152V287h49v57.233C256,347.502,255.042,350.667,253.229,353.385z M256,272h-49V119h49V272z" data-original="#000000" class="active-path" data-old_color="#000000" fill="#646464"/>
	<path d="M223.5,304c-1.97,0-3.91,0.8-5.3,2.2c-1.4,1.39-2.2,3.33-2.2,5.3c0,1.97,0.8,3.91,2.2,5.3c1.39,1.4,3.33,2.2,5.3,2.2   s3.91-0.8,5.3-2.2c1.4-1.39,2.2-3.33,2.2-5.3c0-1.97-0.8-3.91-2.2-5.3C227.41,304.8,225.47,304,223.5,304z" data-original="#000000" class="active-path" data-old_color="#000000" fill="#646464"/>
	<path d="M239.5,328c-1.98,0-3.91,0.8-5.3,2.2c-1.4,1.39-2.2,3.32-2.2,5.3s0.8,3.91,2.2,5.3c1.39,1.4,3.319,2.2,5.3,2.2   c1.979,0,3.91-0.8,5.3-2.2c1.4-1.39,2.2-3.32,2.2-5.3s-0.8-3.91-2.2-5.3C243.41,328.8,241.479,328,239.5,328z" data-original="#000000" class="active-path" data-old_color="#000000" fill="#646464"/>
</g></g> </svg>
